<?xml version="1.0" standalone="no"?>
<!DOCTYPE svg PUBLIC "-//W3C//DTD SVG 20010904//EN"
 "http://www.w3.org/TR/2001/REC-SVG-20010904/DTD/svg10.dtd">
<svg version="1.0" xmlns="http://www.w3.org/2000/svg"
 width="600.000000pt" height="600.000000pt" viewBox="0 0 600.000000 600.000000"
 preserveAspectRatio="xMidYMid meet">
<metadata>
Created by potrace 1.11, written by Peter Selinger 2001-2013
</metadata>
<g transform="translate(0.000000,600.000000) scale(0.100000,-0.100000)"
fill="#000000" stroke="none">
<path d="M0 3000 l0 -3000 3000 0 3000 0 0 3000 0 3000 -3000 0 -3000 0 0
-3000z m4140 926 c400 -61 689 -300 804 -664 56 -178 56 -366 0 -544 -115
-364 -404 -603 -804 -664 -254 -38 -694 2 -1280 117 -524 103 -849 209 -1045
342 -72 49 -175 145 -175 164 0 20 45 16 98 -11 94 -47 466 -159 765 -230 312
-75 606 -127 912 -162 187 -22 608 -25 740 -6 281 41 495 133 610 265 56 64
119 190 146 294 70 259 -26 577 -236 787 -122 122 -276 204 -467 248 -137 32
-474 32 -713 -1 -654 -88 -1216 -219 -1492 -346 -94 -43 -195 -109 -264 -173
-54 -50 -99 -67 -99 -39 0 19 103 115 175 164 196 133 521 239 1045 342 586
115 1026 155 1280 117z m-1130 -503 c1 -5 -32 -151 -72 -325 l-73 -318 -102 0
c-78 0 -101 3 -98 13 5 15 145 623 145 631 0 9 200 7 200 -1z m240 4 c0 -2
-18 -80 -39 -173 -22 -93 -39 -170 -37 -171 1 -2 16 17 33 41 86 122 297 130
372 13 l24 -37 16 47 c14 42 20 48 47 51 31 3 32 5 50 88 l19 84 101 0 101 0
-18 -77 c-23 -97 -23 -93 1 -93 20 0 26 15 49 118 5 24 11 45 13 46 1 2 45 6
96 10 69 4 94 3 97 -7 3 -6 -3 -47 -14 -89 l-18 -78 40 0 c38 0 39 -1 35 -28
l-4 -29 43 33 c95 73 246 62 312 -22 41 -52 51 -165 18 -186 -7 -4 -74 -8
-149 -8 -142 0 -148 -2 -128 -41 13 -24 66 -26 91 -3 15 14 27 14 93 3 49 -7
76 -16 76 -25 0 -24 -51 -73 -103 -98 -139 -68 -278 -28 -317 90 -12 36 -9
112 5 147 6 14 2 17 -19 17 -20 0 -27 -6 -33 -27 -3 -16 -18 -75 -32 -133
l-26 -105 -97 -3 c-116 -3 -109 -17 -69 151 l28 117 -22 0 c-19 0 -24 -11 -44
-97 -12 -54 -26 -115 -32 -135 l-10 -38 -99 0 c-55 0 -100 2 -100 4 0 3 14 62
30 131 17 69 30 128 30 131 0 2 -11 4 -25 4 -19 0 -25 -5 -25 -22 0 -13 -3
-33 -6 -45 -6 -23 -9 -23 -155 -23 -126 0 -149 -2 -149 -15 0 -18 35 -55 53
-55 6 0 26 9 44 19 28 18 38 19 100 9 37 -6 72 -15 77 -19 6 -5 -11 -29 -41
-58 -80 -77 -200 -103 -288 -62 -51 23 -71 47 -94 106 l-18 47 -6 -38 c-4 -22
-12 -56 -17 -76 l-11 -38 -99 0 c-55 0 -100 1 -100 3 0 6 141 612 146 630 5
15 19 17 105 17 54 0 99 -2 99 -3z m-898 -60 c18 -8 48 -26 66 -42 37 -31 78
-103 65 -115 -4 -4 -48 -18 -96 -30 l-88 -23 -15 21 c-11 16 -26 22 -51 22
-79 0 -144 -77 -145 -172 0 -45 4 -56 28 -76 31 -27 82 -26 115 4 30 27 23 34
-36 34 -30 0 -55 2 -55 5 0 3 7 35 16 70 l16 65 150 0 150 0 -5 -22 c-3 -13
-18 -79 -33 -147 l-28 -124 -61 -28 c-255 -119 -501 13 -471 253 24 194 197
337 388 323 32 -3 73 -11 90 -18z m404 -39 c-4 -24 -11 -47 -15 -51 -10 -10
-202 -60 -207 -54 -3 2 3 36 13 76 l17 71 99 0 100 0 -7 -42z m1944 -98 c11
-11 20 -29 20 -40 0 -26 -34 -60 -62 -60 -53 0 -79 74 -36 104 30 21 54 20 78
-4z m-1980 -49 c0 -5 -20 -95 -45 -200 -25 -105 -45 -193 -45 -196 0 -3 -45
-5 -100 -5 -55 0 -100 4 -100 9 0 5 20 95 45 201 25 106 45 194 45 196 0 2 45
4 100 4 55 0 100 -4 100 -9z m-1479 -100 c22 -18 24 -18 53 0 41 25 100 25
126 -1 24 -24 25 -61 5 -185 -8 -49 -15 -93 -15 -97 0 -5 -11 -8 -25 -8 -30 0
-30 3 -10 128 18 111 11 135 -37 130 -48 -5 -67 -40 -85 -156 -16 -100 -16
-102 -43 -102 l-27 0 14 87 c18 111 14 167 -10 171 -62 12 -88 -29 -108 -166
-13 -91 -13 -92 -41 -92 -24 0 -28 3 -24 23 3 12 12 69 21 127 23 154 22 150
50 150 14 0 25 -5 25 -11 0 -5 10 -3 22 5 30 21 81 20 109 -3z m359 -97 l35
-106 64 106 c58 96 67 106 93 106 21 0 27 -4 22 -12 -4 -7 -70 -113 -147 -235
-130 -209 -141 -223 -168 -223 -22 0 -28 4 -23 13 5 6 34 51 65 99 l56 88 -47
135 -47 135 31 0 c31 0 32 -1 66 -106z"/>
<path d="M3345 3070 c-18 -20 -17 -20 38 -20 57 0 67 6 45 28 -19 19 -63 14
-83 -8z"/>
<path d="M4346 3074 c-9 -8 -16 -17 -16 -20 0 -2 25 -4 55 -4 53 0 55 1 45 20
-13 24 -62 27 -84 4z"/>
<path d="M4624 3216 c-12 -31 0 -61 27 -64 33 -4 53 20 45 53 -5 20 -13 25
-37 25 -16 0 -32 -6 -35 -14z m61 -5 c3 -5 1 -12 -4 -16 -6 -3 -7 -13 -4 -23
6 -15 5 -15 -10 -3 -11 9 -17 10 -17 2 0 -6 -4 -11 -10 -11 -5 0 -10 14 -10
30 0 25 4 30 24 30 14 0 27 -4 31 -9z"/>
</g>
</svg>
